<?xml version="1.0" encoding="UTF-8" standalone="no"?>
<!-- Created with Inkscape (http://www.inkscape.org/) -->

<svg
   width="17.75651mm"
   height="12.000097mm"
   viewBox="0 0 17.75651 12.000097"
   version="1.1"
   id="svg1899"
   inkscape:version="1.1.1 (3bf5ae0d25, 2021-09-20)"
   sodipodi:docname="paper.svg"
   xmlns:inkscape="http://www.inkscape.org/namespaces/inkscape"
   xmlns:sodipodi="http://sodipodi.sourceforge.net/DTD/sodipodi-0.dtd"
   xmlns="http://www.w3.org/2000/svg"
   xmlns:svg="http://www.w3.org/2000/svg">
  <sodipodi:namedview
     id="namedview1901"
     pagecolor="#ffffff"
     bordercolor="#666666"
     borderopacity="1.0"
     inkscape:pageshadow="2"
     inkscape:pageopacity="0.0"
     inkscape:pagecheckerboard="0"
     inkscape:document-units="mm"
     showgrid="false"
     fit-margin-top="0"
     fit-margin-left="0"
     fit-margin-right="0"
     fit-margin-bottom="0"
     inkscape:zoom="0.56123737"
     inkscape:cx="-302.01125"
     inkscape:cy="248.55793"
     inkscape:window-width="1920"
     inkscape:window-height="1015"
     inkscape:window-x="0"
     inkscape:window-y="0"
     inkscape:window-maximized="1"
     inkscape:current-layer="layer1" />
  <defs
     id="defs1896" />
  <g
     inkscape:label="Layer 1"
     inkscape:groupmode="layer"
     id="layer1"
     transform="translate(-117.46456,-82.628527)">
    <path
       d="m 122.02104,92.944905 c -2.04143,-0.926046 -3.74334,-1.68372 -3.78201,-1.68372 -0.10132,0 -0.0866,-0.115416 0.0355,-0.277504 0.12134,-0.16112 -0.26172,-0.318147 4.52737,1.855942 l 2.89753,1.315386 4.41195,-2.601067 c 4.11898,-2.428342 4.42133,-2.591689 4.55314,-2.459851 0.12418,0.124222 0.12589,0.151258 0.0142,0.224646 -0.25284,0.16609 -3.81777,2.285592 -5.969,3.548819 -1.21074,0.710956 -2.37585,1.398042 -2.58915,1.526858 l -0.38782,0.234211 z m 3.00567,0.568583 c -5.50653,-2.286338 -6.94159,-2.900806 -6.9409,-2.97197 4.2e-4,-0.04657 0.0321,-0.13395 0.0703,-0.194186 0.0798,-0.125845 -0.0192,-0.16373 4.48305,1.714539 l 2.98879,1.246869 1.03288,-0.591172 c 0.56808,-0.325144 2.63066,-1.510018 4.5835,-2.633053 3.49293,-2.008698 3.68227,-2.097537 3.68708,-1.730025 7.9e-4,0.05443 -0.57973,0.430978 -1.28987,0.836764 -1.0961,0.626326 -6.94746,3.988196 -7.72583,4.438836 -0.24876,0.144017 -0.26712,0.141609 -0.889,-0.116602 z m -3.175,-2.125921 c -2.0955,-0.810555 -3.84062,-1.485588 -3.87805,-1.500074 -0.0374,-0.01449 -0.0333,-0.120171 0.009,-0.234859 0.0691,-0.186675 0.046,-0.222281 -0.22048,-0.339833 l -0.29762,-0.131311 0.79477,-0.369267 c 0.69689,-0.323791 0.77086,-0.378116 0.60058,-0.441105 -0.1194,-0.04417 -0.18475,-0.129178 -0.16969,-0.220719 0.0135,-0.08188 -0.006,-0.198106 -0.0441,-0.25827 -0.046,-0.07329 0.12241,-0.321164 0.51011,-0.751057 0.31829,-0.352916 0.73525,-0.817314 0.92659,-1.031994 l 0.34788,-0.390329 1.30312,-0.0057 c 1.28496,-0.0056 1.85621,-0.0886 2.40847,-0.34977 0.21819,-0.103184 0.27537,-0.197863 0.36523,-0.604712 0.0944,-0.427681 0.0864,-0.572568 -0.0711,-1.277869 -0.0977,-0.437523 -0.16683,-0.820303 -0.15356,-0.850623 0.0133,-0.03032 1.75766,0.388567 3.87644,0.930859 l 3.85234,0.985984 0.0243,0.670475 0.0243,0.670477 1.58041,0.339864 1.58042,0.339866 -4.39869,2.548236 c -2.41925,1.40153 -4.58916,2.653276 -4.822,2.781658 l -0.42333,0.233421 -1.69333,-0.610015 c -0.93134,-0.335509 -2.52648,-0.914075 -3.54477,-1.285704 -1.01829,-0.371627 -1.86645,-0.660671 -1.88481,-0.642318 -0.0276,0.02764 1.6378,0.674847 6.7887,2.638154 l 0.51245,0.195326 1.51955,-0.909229 c 3.06483,-1.833863 7.43118,-4.404601 7.48112,-4.404601 0.0282,0 0.0949,0.06965 0.14802,0.154787 0.0873,0.139746 -0.13081,0.289606 -2.24446,1.542328 -1.28763,0.763149 -3.33,1.975447 -4.53861,2.693998 -1.2086,0.718551 -2.25635,1.317979 -2.32833,1.332064 -0.072,0.01408 -1.84536,-0.637573 -3.94086,-1.448128 z m 7.96259,-2.161114 c 2.2982,-1.325648 4.18046,-2.431174 4.18281,-2.456726 0.002,-0.02555 -0.42254,-0.134478 -0.94419,-0.242058 -0.52164,-0.107581 -0.98837,-0.209981 -1.03716,-0.227556 -0.0488,-0.01758 -0.20302,0.163091 -0.34272,0.401482 -0.388,0.662098 -1.55223,1.65746 -2.40225,2.053811 l -0.70891,0.330555 -0.65912,-0.1009 -0.65912,-0.1009 -0.41656,0.447679 c -0.40461,0.434843 -1.14119,1.261929 -1.18102,1.326141 -0.0109,0.01749 -1.37187,-0.429504 -3.02448,-0.993314 l -3.00476,-1.025112 -0.52864,0.250011 -0.52865,0.250009 0.29142,0.11632 c 0.16028,0.06398 0.86292,0.320729 1.56142,0.570563 0.6985,0.249834 2.12725,0.767716 3.175,1.150849 1.04775,0.383134 1.93727,0.688238 1.9767,0.67801 0.0394,-0.01023 1.95204,-1.103216 4.25023,-2.428864 z m -3.61219,0.167702 c 0.38872,-0.421499 0.69285,-0.779681 0.67584,-0.795961 -0.0288,-0.02755 -1.43785,-0.606985 -4.80203,-1.974663 l -1.38444,-0.562837 -0.45839,0.504745 c -0.85169,0.937819 -1.24196,1.397753 -1.2086,1.424332 0.0564,0.04492 6.29313,2.160509 6.38471,2.165784 0.0474,0.0027 0.4042,-0.3399 0.79291,-0.7614 z m 2.96205,-1.054289 c 0.7619,-0.365134 1.70366,-1.181713 2.14471,-1.859642 0.30816,-0.473671 0.32719,-0.539904 0.30412,-1.058333 l -0.0246,-0.55304 -0.42333,-0.105718 c -0.23283,-0.05814 -1.75549,-0.446842 -3.38368,-0.86377 -1.62818,-0.416928 -2.96714,-0.750355 -2.97546,-0.740948 -0.008,0.0094 0.0399,0.282208 0.10706,0.606226 0.11877,0.572681 0.10189,0.814745 -0.11093,1.590767 -0.0525,0.19156 -0.70197,0.571777 -0.97663,0.571777 -0.11702,0 -0.32322,0.03831 -0.45823,0.08514 -0.135,0.04682 -0.57886,0.1135 -0.98634,0.148167 l -0.74087,0.06303 2.68821,1.097561 c 2.48235,1.013513 3.25989,1.264599 4.04526,1.306317 0.0944,0.005 0.45027,-0.124372 0.79073,-0.28753 z"
       style="fill:#000000;stroke-width:0.0846667"
       id="path1890" />
  </g>
</svg>
