<?xml version="1.0" encoding="UTF-8" standalone="no"?>
<!-- Created with Inkscape (http://www.inkscape.org/) -->

<svg
   width="14.236358mm"
   height="12.50556mm"
   viewBox="0 0 14.236358 12.50556"
   version="1.1"
   id="svg1793"
   inkscape:version="1.1.1 (3bf5ae0d25, 2021-09-20)"
   sodipodi:docname="rock.svg"
   xmlns:inkscape="http://www.inkscape.org/namespaces/inkscape"
   xmlns:sodipodi="http://sodipodi.sourceforge.net/DTD/sodipodi-0.dtd"
   xmlns="http://www.w3.org/2000/svg"
   xmlns:svg="http://www.w3.org/2000/svg">
  <sodipodi:namedview
     id="namedview1795"
     pagecolor="#ffffff"
     bordercolor="#666666"
     borderopacity="1.0"
     inkscape:pageshadow="2"
     inkscape:pageopacity="0.0"
     inkscape:pagecheckerboard="0"
     inkscape:document-units="mm"
     showgrid="false"
     fit-margin-top="0"
     fit-margin-left="0"
     fit-margin-right="0"
     fit-margin-bottom="0"
     inkscape:zoom="3.174838"
     inkscape:cx="45.514133"
     inkscape:cy="27.560461"
     inkscape:window-width="1920"
     inkscape:window-height="1015"
     inkscape:window-x="0"
     inkscape:window-y="0"
     inkscape:window-maximized="1"
     inkscape:current-layer="layer1" />
  <defs
     id="defs1790" />
  <g
     inkscape:label="Layer 1"
     inkscape:groupmode="layer"
     id="layer1"
     transform="translate(-11.738962,-179.9615)">
    <path
       d="m 19.020435,192.40849 c -0.03223,-0.0322 -1.192266,-0.0618 -2.57787,-0.0657 l -2.519279,-0.007 -0.478295,-0.23401 c -0.587106,-0.28724 -0.75302,-0.58636 -0.997126,-1.79766 -0.0934,-0.46349 -0.291117,-1.34831 -0.439364,-1.96625 l -0.269539,-1.12355 0.171206,-0.23112 c 0.257587,-0.34774 0.64292,-0.57722 1.383186,-0.82375 1.217512,-0.40547 1.336263,-0.6327 1.155785,-2.2116 -0.06323,-0.55318 -0.09783,-1.1442 -0.07688,-1.31338 0.04337,-0.35025 -0.0246,-0.30898 1.535206,-0.93212 1.342147,-0.53619 1.614544,-0.67783 2.244589,-1.1671 0.288008,-0.22366 0.693254,-0.44978 0.913278,-0.5096 0.364569,-0.0991 0.422269,-0.0925 0.737065,0.0844 0.375124,0.21083 0.372357,0.20371 0.550613,1.41716 0.06354,0.43256 0.136423,0.80737 0.161955,0.8329 0.09771,0.0977 0.728295,0.20804 1.563096,0.27349 1.290471,0.10118 1.35722,0.19224 1.588187,2.16672 0.1304,1.11476 0.24972,1.51977 0.516366,1.75273 0.08792,0.0768 0.483702,0.25081 0.879518,0.38668 l 0.719667,0.24702 0.09767,0.45999 c 0.146699,0.69089 0.130094,1.06143 -0.08512,1.89943 -0.216255,0.84206 -0.28776,1.00469 -0.693359,1.57701 -0.152713,0.21548 -0.345187,0.606 -0.42772,0.86783 l -0.150061,0.47605 h -2.722094 c -1.497152,0 -2.748459,-0.0264 -2.780684,-0.0586 z m 5.276004,-0.80925 c 0.05927,-0.1979 0.212485,-0.49318 0.340468,-0.65616 0.357377,-0.45512 0.520252,-0.82182 0.729804,-1.64313 0.167335,-0.65584 0.180246,-0.81585 0.09907,-1.22767 -0.05134,-0.26044 -0.13459,-0.50104 -0.184996,-0.53466 -0.05041,-0.0336 -0.343918,-0.138 -0.652248,-0.23196 -0.974134,-0.29686 -1.258053,-0.77558 -1.43302,-2.41625 -0.09646,-0.90453 -0.216099,-1.46234 -0.348232,-1.62365 -0.0449,-0.0548 -0.336446,-0.1216 -0.647889,-0.14841 -0.311443,-0.0268 -0.862957,-0.0915 -1.225587,-0.14377 l -0.659327,-0.095 -0.441339,0.36397 c -0.242737,0.20019 -0.503422,0.41625 -0.579301,0.48014 -0.122176,0.10288 -0.184307,0.0512 -0.543013,-0.45146 l -0.405051,-0.56763 0.197468,-0.1599 0.197468,-0.1599 0.218544,0.34204 c 0.1202,0.18811 0.249355,0.3423 0.28701,0.34264 0.03766,3.4e-4 0.222697,-0.12322 0.411204,-0.27456 0.342514,-0.27498 0.342705,-0.27547 0.289783,-0.74083 -0.108239,-0.95179 -0.237936,-1.44345 -0.404255,-1.53246 -0.24039,-0.12865 -0.669415,0.0432 -1.212827,0.48588 -0.484812,0.39493 -1.134598,0.71937 -2.496703,1.24663 -1.146491,0.4438 -1.057801,0.31992 -0.944221,1.31878 0.11928,1.04896 0.124199,1.70206 0.01498,1.98932 -0.0994,0.26144 -0.120607,0.25965 1.056238,0.0891 0.465666,-0.0675 0.888741,-0.12341 0.940166,-0.12431 0.05143,-9e-4 0.173798,0.27458 0.27194,0.61218 0.30915,1.06348 0.310823,1.0795 0.112669,1.0795 -0.135222,0 -0.196374,-0.0822 -0.267739,-0.35983 -0.05087,-0.19791 -0.138064,-0.49579 -0.193764,-0.66196 l -0.101273,-0.30214 -1.087183,0.15123 c -0.597951,0.0832 -1.321851,0.24199 -1.608667,0.35291 -0.286816,0.11092 -0.705226,0.26876 -0.9298,0.35075 -0.224575,0.082 -0.51005,0.23659 -0.63439,0.34354 l -0.226073,0.19446 0.273957,1.08736 c 0.150676,0.59804 0.313412,1.32222 0.361635,1.60927 0.302803,1.8025 0.526788,1.94307 2.961521,1.85866 0.814917,-0.0283 1.786467,-0.0188 2.159,0.021 0.372533,0.0398 1.919077,0.0777 3.436765,0.0842 l 2.759431,0.0118 z"
       style="fill:#000000;stroke-width:0.0846667"
       id="path1784" />
  </g>
</svg>
