<?xml version="1.0" encoding="UTF-8" standalone="no"?>
<!-- Created with Inkscape (http://www.inkscape.org/) -->

<svg
   width="17.781279mm"
   height="8.8216286mm"
   viewBox="0 0 17.781279 8.8216287"
   version="1.1"
   id="svg2043"
   inkscape:version="1.1.1 (3bf5ae0d25, 2021-09-20)"
   sodipodi:docname="scissors.svg"
   xmlns:inkscape="http://www.inkscape.org/namespaces/inkscape"
   xmlns:sodipodi="http://sodipodi.sourceforge.net/DTD/sodipodi-0.dtd"
   xmlns="http://www.w3.org/2000/svg"
   xmlns:svg="http://www.w3.org/2000/svg">
  <sodipodi:namedview
     id="namedview2045"
     pagecolor="#ffffff"
     bordercolor="#666666"
     borderopacity="1.0"
     inkscape:pageshadow="2"
     inkscape:pageopacity="0.0"
     inkscape:pagecheckerboard="0"
     inkscape:document-units="mm"
     showgrid="false"
     fit-margin-top="0"
     fit-margin-left="0"
     fit-margin-right="0"
     fit-margin-bottom="0"
     inkscape:zoom="0.56123737"
     inkscape:cx="-612.0405"
     inkscape:cy="316.26547"
     inkscape:window-width="1920"
     inkscape:window-height="1015"
     inkscape:window-x="0"
     inkscape:window-y="0"
     inkscape:window-maximized="1"
     inkscape:current-layer="layer1" />
  <defs
     id="defs2040" />
  <g
     inkscape:label="Layer 1"
     inkscape:groupmode="layer"
     id="layer1"
     transform="translate(-132.06656,-64.417757)">
    <path
       d="m 132.08351,71.243932 c 0.33793,-1.54571 2.16013,-2.31362 3.43581,-1.44792 0.51934,0.35243 0.69233,0.34542 1.69256,-0.0685 0.87549,-0.36234 1.41849,-0.66924 1.41849,-0.80172 0,-0.11919 -0.51047,-0.43992 -1.36619,-0.85839 -0.90866,-0.44435 -1.08078,-0.46338 -1.51248,-0.16717 -0.85154,0.58429 -2.29329,0.33861 -2.95938,-0.50427 -0.23584,-0.29844 -0.51239,-0.9776 -0.51148,-1.25612 10e-4,-0.34351 0.20094,-0.81523 0.47282,-1.11616 0.40835,-0.452 0.78606,-0.61084 1.44063,-0.60581 0.9384,0.007 1.67969,0.46932 2.10672,1.31332 0.3257,0.64375 0.73708,1.03156 1.50244,1.41638 1.20689,0.60681 1.41394,0.66593 2.02217,0.57741 0.69409,-0.10101 4.11175,-0.32655 5.91675,-0.39046 1.09523,-0.0388 1.55146,-0.02 2.11207,0.087 0.74287,0.14172 2.03868,0.68848 1.90274,0.80285 -0.0428,0.036 -0.61121,0.15235 -1.26315,0.25855 -1.92011,0.31278 -3.54766,0.61531 -3.66932,0.68204 -0.0641,0.0351 1.00315,0.33877 2.4549,0.69846 l 2.56823,0.63631 -0.36626,0.18685 c -0.59356,0.30282 -1.57494,0.51516 -2.37692,0.51432 -0.78086,-8e-4 -2.15291,-0.14619 -4.03832,-0.42786 -0.64697,-0.0967 -1.70971,-0.25212 -2.36164,-0.34548 -0.65193,-0.0934 -1.29963,-0.189 -1.43933,-0.21253 -0.25919,-0.0437 -1.81424,0.50022 -2.37327,0.83005 -0.29362,0.17325 -0.74774,0.69974 -0.83169,0.96427 -0.0908,0.28625 -0.66625,0.81605 -1.11304,1.02484 -0.97983,0.45787 -2.23675,0.11927 -2.65634,-0.7156 -0.17391,-0.34604 -0.26438,-0.81451 -0.20752,-1.07459 z m 0.58678,0.90349 c 0.2973,0.58201 1.24927,0.83586 2.02444,0.53982 0.45929,-0.1754 1.03113,-0.79613 1.10725,-1.20192 0.22987,-1.2253 -1.08888,-2.03247 -2.31908,-1.41944 -0.86504,0.43107 -1.20755,1.3084 -0.81261,2.08154 z m 0.2375,-1.2583 c 0.15661,-0.34629 0.72555,-0.75872 1.14421,-0.82945 0.48253,-0.0815 0.96508,0.0807 1.26863,0.42639 0.22122,0.25195 0.26174,0.36669 0.26174,0.74116 0,1.27006 -1.66384,1.90227 -2.531,0.96172 -0.25145,-0.27274 -0.32146,-0.9065 -0.14358,-1.29982 z m 0.2672,1.00068 c 0.14026,0.27124 0.56119,0.49713 0.92636,0.49713 0.5667,0 1.226,-0.60521 1.2267,-1.12604 6.9e-4,-0.49032 -0.22138,-0.73145 -0.8612,-0.93528 -0.23036,-0.0734 -0.77107,0.11262 -1.03111,0.35471 -0.40761,0.37946 -0.49069,0.76483 -0.26075,1.20948 z m -0.37747,-5.39134 c 0.13707,0.4937 0.45813,0.86076 0.9734,1.11286 0.91503,0.44768 1.87871,0.14789 2.1961,-0.68318 0.1255,-0.3286 0.13104,-0.43432 0.0399,-0.75991 -0.15459,-0.55217 -0.59075,-1.01762 -1.14942,-1.22665 -0.57155,-0.21384 -0.82675,-0.21679 -1.26478,-0.0146 -0.40598,0.18737 -0.70198,0.49162 -0.80142,0.82374 -0.0999,0.3335 -0.0996,0.36663 0.006,0.74777 z m 0.37388,-0.89829 c 0.34696,-0.63879 1.41339,-0.78008 2.04983,-0.27158 0.83047,0.66352 0.7989,1.73523 -0.0639,2.16871 -0.68042,0.34185 -1.62143,0.005 -1.99602,-0.71533 -0.15235,-0.29282 -0.14724,-0.89215 0.0101,-1.1818 z m 0.29749,1.16159 c 0.16857,0.27275 0.75697,0.62984 1.03783,0.62984 0.0775,0 0.29112,-0.0601 0.47474,-0.13359 0.89503,-0.35812 0.69479,-1.60126 -0.30624,-1.90117 -0.99527,-0.29819 -1.73004,0.55754 -1.20633,1.40492 z m 2.75778,4.12458 c 0.0284,0.0284 0.1958,-0.0394 0.372,-0.1506 0.1762,-0.11123 0.73399,-0.36234 1.23953,-0.55801 1.04859,-0.40587 1.092,-0.43327 0.98612,-0.62246 -0.0709,-0.12662 -0.0955,-0.12477 -0.28394,0.0214 -0.11349,0.088 -0.6912,0.34675 -1.28379,0.57498 -1.01777,0.39198 -1.22489,0.53974 -1.02992,0.73471 z m 1.10821,-3.24074 c 1.49353,0.70838 1.73204,0.93188 1.9259,1.80474 0.0627,0.28222 0.37305,0.43433 1.06292,0.52091 0.25612,0.0321 1.51784,0.2073 2.80384,0.38923 1.28599,0.18193 2.71641,0.35557 3.17871,0.38587 0.89459,0.0586 2.21154,-0.0256 2.09083,-0.13368 -0.0398,-0.0357 -0.72008,-0.22455 -1.51171,-0.41977 -0.79164,-0.19523 -2.16781,-0.56089 -3.05817,-0.81258 -1.98987,-0.56251 -4.10642,-1.11044 -4.56863,-1.18272 -0.39934,-0.0625 -2.09763,-0.86051 -2.5252,-1.18664 -0.29379,-0.22409 -0.33116,-0.21146 -0.37483,0.12664 -0.003,0.0233 0.43634,0.25188 0.97634,0.508 z m 2.38165,1.15612 c 0.0852,-0.0771 0.23756,-0.14012 0.33867,-0.14012 0.23041,0 0.5225,0.28398 0.5225,0.508 0,0.22977 -0.29422,0.508 -0.53721,0.508 -0.42071,0 -0.63916,-0.59063 -0.32396,-0.87588 z m 0.35317,0.45254 c 0.0466,0 0.0847,-0.0381 0.0847,-0.0847 0,-0.0466 -0.0381,-0.0847 -0.0847,-0.0847 -0.0466,0 -0.0847,0.0381 -0.0847,0.0847 0,0.0466 0.0381,0.0847 0.0847,0.0847 z m 4.99533,-0.58496 c 0.72179,-0.14124 1.80615,-0.34238 2.4097,-0.44699 l 1.09736,-0.19018 -0.37769,-0.12697 c -0.5186,-0.17433 -3.49051,-0.16199 -5.6571,0.0235 -0.9013,0.0772 -1.68235,0.14237 -1.73567,0.14492 -0.0533,0.003 0.58887,0.19541 1.42707,0.42859 l 1.524,0.42395 z"
       style="fill:#000000;stroke-width:0.0846667"
       id="path2034" />
  </g>
</svg>
